# xmcd CD database file
#
# Track frame offsets:
#	150
#	16267
#	28519
#	32898
#	43610
#	55621
#	67360
#	88897
#	108094
#	121528
#	136327
#	166788
#	178371
#	190892
#	202070
#	212885
#	226734
#	242185
#
# Disc length: 3509 seconds
#
# Revision: 9
# Processed by: cddbd v1.5.1PL2 Copyright (c) Steve Scherf et al.
# Submitted via: CDex 1.51
#
DISCID=e80db312,fa0db312
DTITLE=Various Blues Artists - Play Me The Blues
DYEAR=2000
DGENRE=Blues
TTITLE0=B.B. King -Long Nights
TTITLE1=Elmore James - The Sky Is Crying
TTITLE2=Mississippi John Hurt - C-h-i-c-k-e-n Blues
TTITLE3=Johnny Winter - Out Of Sight
TTITLE4=John Lee Hooker - Whiskey And Wimmen
TTITLE5=Lightning Slim - Bad Luck Blues
TTITLE6=Lightnin' Hopkins - Don`t Wake Me
TTITLE7=John Mayall - John Lee Boogie
TTITLE8=Johnny Guitar Watson - Someone Cares For Me
TTITLE9=B.B. King - Mr. Pawnbroker
TTITLE10=Brownie McGhee and Sonny Terry - Everybody`s Blues
TTITLE11=Lightnin' Hopkins - Blues For My Cookie
TTITLE12=Eric Clapton - Freight Loader
TTITLE13=B. B. King - Catfish Blues
TTITLE14=No Shoes - John Lee Hooker
TTITLE15=Elmore James - It Hurts Me Too
TTITLE16=Big Joe Williams - Nobody Knows You When Your Down And Out
TTITLE17=Mike Bloomfield - Woman Llovin' Each Other
EXTD=3 cd BOX YEAR: 2000
EXTT0=
EXTT1=
EXTT2=
EXTT3=
EXTT4=
EXTT5=
EXTT6=
EXTT7=
EXTT8=
EXTT9=
EXTT10=
EXTT11=
EXTT12=
EXTT13=
EXTT14=
EXTT15=
EXTT16=
EXTT17=
PLAYORDER=
